<?xml version="1.0" encoding="UTF-8"?>
<svg id="Layer_1" data-name="Layer 1" xmlns="http://www.w3.org/2000/svg" viewBox="0 0 1200 1200">
  <defs>
    <style>
      .cls-1 {
        fill: #231f20;
      }
    </style>
  </defs>
  <g>
    <path class="cls-1" d="M620.95,248.25v226.06c0,11.57-9.38,20.95-20.95,20.95h0c-11.57,0-20.95-9.38-20.95-20.95v-225.55c0-11.53,9.1-21.28,20.63-21.46,5.91-.09,11.27,2.27,15.13,6.14,3.79,3.79,6.14,9.02,6.14,14.81Z"/>
    <path class="cls-1" d="M537.16,558.1h0c0,11.57-9.38,20.95-20.95,20.95h-225.52c-11.38,0-21.09-8.85-21.48-20.22s9.13-21.68,20.94-21.68h226.06c11.57,0,20.95,9.38,20.95,20.95Z"/>
    <path class="cls-1" d="M930.8,557.78c.09,5.91-2.27,11.27-6.14,15.13-3.79,3.79-9.02,6.14-14.81,6.14h-226.06c-11.57,0-20.95-9.38-20.95-20.95h0c0-11.57,9.38-20.95,20.95-20.95h225.55c11.53,0,21.28,9.1,21.46,20.63Z"/>
    <path class="cls-1" d="M840.04,339c0,5.36-2.04,10.72-6.13,14.81l-135.32,135.32c-3.93,3.93-9.26,6.13-14.81,6.13h0c-11.57,0-20.94-9.38-20.94-20.94h0c0-5.55,2.21-10.88,6.13-14.81l134.91-134.91c8.19-8.19,21.61-8.67,29.88-.56,4.19,4.11,6.28,9.53,6.28,14.96Z"/>
    <path class="cls-1" d="M620.95,566.8v300.61c0,11.38-8.85,21.09-20.22,21.48s-21.68-9.13-21.68-20.94v-288.92c0-7.85-3.12-15.38-8.67-20.93h0s-20.95-20.95-20.95-20.95l-41.89-41.89-141.07-141.07c-8.05-8.05-8.65-21.17-.88-29.48,8.13-8.7,21.77-8.87,30.12-.52l141.45,141.45,41.89,41.89,20.95,20.95,8.67,8.67h0c7.86,7.86,12.28,18.53,12.28,29.65Z"/>
  </g>
  <circle class="cls-1" cx="600" cy="951.75" r="20.95"/>
</svg>